HIERARCHY
ROOT hip
{
  OFFSET 0 0 0
  CHANNELS 6 Xposition Yposition Zposition Zrotation Yrotation Xrotation
  JOINT abdomen
  {
    OFFSET 0 20.6881 -0.73152
    CHANNELS 3 Zrotation Xrotation Yrotation
    JOINT chest
    {
      OFFSET 0 11.7043 -0.48768
      CHANNELS 3 Zrotation Xrotation Yrotation
      JOINT neck
      {
        OFFSET 0 22.1894 -2.19456
        CHANNELS 3 Zrotation Xrotation Yrotation
        JOINT head
        {
          OFFSET -0.24384 7.07133 1.2192
          CHANNELS 3 Zrotation Xrotation Yrotation
          JOINT leftEye
          {
            OFFSET 4.14528 8.04674 8.04672
            CHANNELS 3 Zrotation Xrotation Yrotation
            End Site
            {
              OFFSET 1 0 0
            }
          }
          JOINT rightEye
          {
            OFFSET -3.6576 8.04674 8.04672
            CHANNELS 3 Zrotation Xrotation Yrotation
            End Site
            {
              OFFSET 1 0 0
            }
          }
        }
      }
      JOINT rCollar
      {
        OFFSET -2.68224 19.2634 -4.8768
        CHANNELS 3 Zrotation Xrotation Yrotation
        JOINT rShldr
        {
          OFFSET -8.77824 -1.95073 1.46304
          CHANNELS 3 Zrotation Xrotation Yrotation
          JOINT rForeArm
          {
            OFFSET -28.1742 -1.7115 0.48768
            CHANNELS 3 Zrotation Xrotation Yrotation
            JOINT rHand
            {
              OFFSET -22.5879 0.773209 7.07136
              CHANNELS 3 Zrotation Xrotation Yrotation
              JOINT rThumb1
              {
                OFFSET -1.2192 -0.487915 3.41376
                CHANNELS 3 Zrotation Xrotation Yrotation
                JOINT rThumb2
                {
                  OFFSET -3.37035 -0.52449 3.41376
                  CHANNELS 3 Zrotation Xrotation Yrotation
                  End Site
                  {
                    OFFSET -1.78271 -1.18214 1.43049
                  }
                }
              }
              JOINT rIndex1
              {
                OFFSET -7.75947 0.938293 5.60832
                CHANNELS 3 Zrotation Xrotation Yrotation
                JOINT rIndex2
                {
                  OFFSET -2.54057 -0.884171 1.56538
                  CHANNELS 3 Zrotation Xrotation Yrotation
                  End Site
                  {
                    OFFSET -1.62519 -0.234802 1.16502
                  }
                }
              }
              JOINT rMid1
              {
                OFFSET -8.24714 1.18213 3.41376
                CHANNELS 3 Zrotation Xrotation Yrotation
                JOINT rMid2
                {
                  OFFSET -3.10165 -0.590103 1.0647
                  CHANNELS 3 Zrotation Xrotation Yrotation
                  End Site
                  {
                    OFFSET -2.48547 -0.328903 0.83742
                  }
                }
              }
              JOINT rRing1
              {
                OFFSET -8.82822 0.546677 1.51678
                CHANNELS 3 Zrotation Xrotation Yrotation
                JOINT rRing2
                {
                  OFFSET -2.60934 -0.819778 -0.0198488
                  CHANNELS 3 Zrotation Xrotation Yrotation
                  End Site
                  {
                    OFFSET -2.33842 -0.294052 0.168128
                  }
                }
              }
              JOINT rPinky1
              {
                OFFSET -8.27202 -0.0477905 -0.4584
                CHANNELS 3 Zrotation Xrotation Yrotation
                JOINT rPinky2
                {
                  OFFSET -1.82734 -0.647385 -0.700984
                  CHANNELS 3 Zrotation Xrotation Yrotation
                  End Site
                  {
                    OFFSET -1.69225 -0.51767 -0.607171
                  }
                }
              }
            }
          }
        }
      }
      JOINT lCollar
      {
        OFFSET 2.68224 19.2634 -4.8768
        CHANNELS 3 Zrotation Xrotation Yrotation
        JOINT lShldr
        {
          OFFSET 8.77824 -1.95073 1.46304
          CHANNELS 3 Zrotation Xrotation Yrotation
          JOINT lForeArm
          {
            OFFSET 28.1742 -1.7115 0.48768
            CHANNELS 3 Zrotation Xrotation Yrotation
            JOINT lHand
            {
              OFFSET 22.5879 0.773209 7.07136
              CHANNELS 3 Zrotation Xrotation Yrotation
              JOINT lThumb1
              {
                OFFSET 1.2192 -0.487915 3.41376
                CHANNELS 3 Zrotation Xrotation Yrotation
                JOINT lThumb2
                {
                  OFFSET 3.37035 -0.52449 3.41376
                  CHANNELS 3 Zrotation Xrotation Yrotation
                  End Site
                  {
                    OFFSET 1.78271 -1.18214 1.43049
                  }
                }
              }
              JOINT lIndex1
              {
                OFFSET 7.75947 0.938293 5.60832
                CHANNELS 3 Zrotation Xrotation Yrotation
                JOINT lIndex2
                {
                  OFFSET 2.54057 -0.884171 1.56538
                  CHANNELS 3 Zrotation Xrotation Yrotation
                  End Site
                  {
                    OFFSET 1.62519 -0.234802 1.16502
                  }
                }
              }
              JOINT lMid1
              {
                OFFSET 8.24714 1.18213 3.41376
                CHANNELS 3 Zrotation Xrotation Yrotation
                JOINT lMid2
                {
                  OFFSET 3.10165 -0.590103 1.0647
                  CHANNELS 3 Zrotation Xrotation Yrotation
                  End Site
                  {
                    OFFSET 2.48547 -0.328903 0.83742
                  }
                }
              }
              JOINT lRing1
              {
                OFFSET 8.82822 0.546677 1.51678
                CHANNELS 3 Zrotation Xrotation Yrotation
                JOINT lRing2
                {
                  OFFSET 2.60934 -0.819778 -0.0198488
                  CHANNELS 3 Zrotation Xrotation Yrotation
                  End Site
                  {
                    OFFSET 2.33842 -0.294052 0.168128
                  }
                }
              }
              JOINT lPinky1
              {
                OFFSET 8.27202 -0.0477905 -0.4584
                CHANNELS 3 Zrotation Xrotation Yrotation
                JOINT lPinky2
                {
                  OFFSET 1.82734 -0.647385 -0.700984
                  CHANNELS 3 Zrotation Xrotation Yrotation
                  End Site
                  {
                    OFFSET 1.69225 -0.51767 -0.607171
                  }
                }
              }
            }
          }
        }
      }
    }
  }
  JOINT rButtock
  {
    OFFSET -8.77824 4.35084 1.2192
    CHANNELS 3 Zrotation Xrotation Yrotation
    JOINT rThigh
    {
      OFFSET 0 -1.70687 -2.19456
      CHANNELS 3 Zrotation Xrotation Yrotation
      JOINT rShin
      {
        OFFSET 0 -36.8199 0.73152
        CHANNELS 3 Zrotation Xrotation Yrotation
        JOINT rFoot
        {
          OFFSET 0.73152 -45.1104 -5.12064
          CHANNELS 3 Zrotation Xrotation Yrotation
          End Site
          {
            OFFSET -1.1221 -3.69964 12.103
          }
        }
      }
    }
  }
  JOINT lButtock
  {
    OFFSET 8.77824 4.35084 1.2192
    CHANNELS 3 Zrotation Xrotation Yrotation
    JOINT lThigh
    {
      OFFSET 0 -1.70687 -2.19456
      CHANNELS 3 Zrotation Xrotation Yrotation
      JOINT lShin
      {
        OFFSET 0 -36.8199 0.73152
        CHANNELS 3 Zrotation Xrotation Yrotation
        JOINT lFoot
        {
          OFFSET -0.73152 -45.1104 -5.12064
          CHANNELS 3 Zrotation Xrotation Yrotation
          End Site
          {
            OFFSET 1.1221 -3.69964 12.103
          }
        }
      }
    }
  }
}
MOTION
Frames:	7
Frame Time:	0.00833333
26.7812 85.2646 33.1782 -166.647 -93.9511 180.592 8.51946 -1.80948 0.438836 3.23174 -15.9191 0.38247 -7.96247 -2.41041 -3.03759 -19.0485 23.9671 -3.06019 -0.0 0.0 0.0 -0.0 0.0 0.0 -1.14529e-13 -7.34195e-14 -6.85807e-15 46.9146 36.6661 15.7636 -27.9632 -40.6047 85.0124 -0.133749 -10.3705 -1.47377 6.98554e-10 -1.35372e-09 -4.0019e-09 1.23714e-09 -2.34433e-09 -6.91596e-09 6.98561e-10 -1.35372e-09 -4.0019e-09 7.73091 5.47488 0.417314 6.98554e-10 -1.35371e-09 -4.00189e-09 2.90554 0.965183 0.102902 6.98557e-10 -1.35371e-09 -4.00189e-09 10.2786 0.731801 0.0259123 6.98554e-10 -1.35371e-09 -4.00188e-09 2.22167 -0.733487 -0.20892 -1.14479e-13 -7.3383e-14 -7.05686e-15 -84.489 14.5349 14.0618 18.718 -11.4799 -35.6515 0.132891 10.3377 -1.469 1.52677e-09 1.47616e-10 5.63944e-10 2.64529e-09 2.32543e-10 9.55932e-10 1.52677e-09 1.47593e-10 5.63954e-10 -7.73091 5.47488 -0.417314 1.52677e-09 1.47616e-10 5.63947e-10 -2.90554 0.965183 -0.102902 1.52676e-09 1.47591e-10 5.63952e-10 -10.2786 0.731801 -0.0259123 1.52678e-09 1.47619e-10 5.63957e-10 -2.22167 -0.733487 0.20892 -2.03217e-16 0.0 -3.88251e-19 0.654886 -3.27416 14.5263 -0.0124682 11.5254 0.202108 -11.7986 -28.0419 -23.8371 2.03217e-16 0.0 3.88251e-19 -15.1177 -24.5326 -14.9832 0.0160167 16.7114 -0.49779 0.118058 -5.80298 4.32616
27.0199 85.3415 32.8984 -171.742 -94.6794 185.723 8.67139 -1.80785 0.698162 2.99982 -15.6588 0.430101 -7.49945 -2.71076 -2.79199 -18.9024 23.6965 -2.58505 -0.0 0.0 0.0 -0.0 0.0 0.0 -7.04903e-14 4.25271e-13 -5.02646e-14 48.4096 36.4646 14.9161 -27.9271 -40.648 85.2054 -0.127347 -10.1163 -1.4369 5.26812e-10 -9.80002e-10 -3.09727e-09 9.34662e-10 -1.69861e-09 -5.35478e-09 5.26819e-10 -9.80001e-10 -3.09727e-09 7.73091 5.47488 0.417314 5.26812e-10 -9.8e-10 -3.09726e-09 2.90554 0.965183 0.102902 5.26817e-10 -9.8e-10 -3.09726e-09 10.2786 0.731801 0.0259123 5.26812e-10 -9.79999e-10 -3.09725e-09 2.22167 -0.733487 -0.20892 -7.04031e-14 4.25306e-13 -5.04315e-14 -84.2312 14.8243 13.627 18.6981 -11.4569 -35.6071 0.115984 9.70368 -1.37694 1.08926e-09 -2.01599e-10 3.00642e-10 1.88694e-09 -3.65662e-10 5.04662e-10 1.08926e-09 -2.01627e-10 3.00651e-10 -7.73091 5.47488 -0.417314 1.08926e-09 -2.01601e-10 3.00645e-10 -2.90554 0.965183 -0.102902 1.08925e-09 -2.01629e-10 3.00649e-10 -10.2786 0.731801 -0.0259123 1.08927e-09 -2.01597e-10 3.00651e-10 -2.22167 -0.733487 0.20892 -2.03217e-16 0.0 -3.88251e-19 1.31741 -2.95935 14.8225 -0.0127019 10.7456 0.162909 -12.4578 -28.9548 -24.623 2.03217e-16 0.0 3.88251e-19 -14.7576 -24.6906 -15.388 0.0160188 16.5137 -0.514226 0.0864223 -5.48824 4.34183
27.3233 85.3897 32.5791 -174.394 -95.3065 188.55 8.82224 -1.80824 1.00867 2.72874 -15.2675 0.486813 -7.02226 -3.12238 -2.5316 -18.7227 23.4085 -2.06246 -0.0 0.0 0.0 -0.0 0.0 0.0 1.16669e-14 1.14466e-12 -1.08953e-13 49.9753 36.1572 14.0463 -27.9389 -40.4665 84.9794 -0.122121 -9.90976 -1.40695 2.36542e-10 -3.19088e-10 -1.49005e-09 4.22617e-10 -5.56157e-10 -2.57979e-09 2.36549e-10 -3.19089e-10 -1.49005e-09 7.73091 5.47488 0.417314 2.36543e-10 -3.19086e-10 -1.49004e-09 2.90554 0.965183 0.102902 2.36548e-10 -3.19088e-10 -1.49004e-09 10.2786 0.731801 0.0259123 2.3654e-10 -3.19088e-10 -1.49004e-09 2.22167 -0.733487 -0.20892 1.17903e-14 1.14469e-12 -1.09083e-13 -83.8931 15.131 13.0353 18.6405 -11.3909 -35.4768 0.0978695 8.95343 -1.26854 1.67034e-10 -6.98268e-10 -2.33353e-10 2.88347e-10 -1.21223e-09 -4.09634e-10 1.6703e-10 -6.98301e-10 -2.33345e-10 -7.73091 5.47488 -0.417314 1.67035e-10 -6.98271e-10 -2.33351e-10 -2.90554 0.965183 -0.102902 1.67026e-10 -6.98302e-10 -2.33349e-10 -10.2786 0.731801 -0.0259123 1.6704e-10 -6.98269e-10 -2.33352e-10 -2.22167 -0.733487 0.20892 -2.03217e-16 0.0 -3.88251e-19 2.07808 -2.58563 15.2364 -0.0129991 9.91817 0.118483 -13.1847 -29.8366 -25.532 2.03217e-16 0.0 3.88251e-19 -14.2956 -24.7838 -15.7473 0.0155562 16.23 -0.53111 0.0536829 -5.16412 4.38699
27.6498 85.441 32.1487 -176.86 -95.756 191.161 8.96498 -1.79774 1.32732 2.43651 -14.8776 0.543755 -6.55261 -3.54197 -2.26646 -18.5186 23.0943 -1.53396 -0.0 0.0 0.0 -0.0 0.0 0.0 9.75074e-14 1.83985e-12 -1.6614e-13 51.4366 35.9791 13.1693 -28.0128 -40.09 84.2843 -0.118552 -9.76921 -1.38658 3.3911e-12 2.80304e-10 4.94914e-11 9.67682e-12 4.80256e-10 7.93348e-11 3.39835e-12 2.80302e-10 4.94848e-11 7.73091 5.47488 0.417314 3.3924e-12 2.80305e-10 4.95007e-11 2.90554 0.965183 0.102902 3.39938e-12 2.80302e-10 4.94944e-11 10.2786 0.731801 0.0259123 3.38748e-12 2.80302e-10 4.94973e-11 2.22167 -0.733487 -0.20892 9.76557e-14 1.83988e-12 -1.66244e-13 -83.5327 15.4821 12.3851 18.5482 -11.2871 -35.2657 0.0837102 8.27373 -1.17088 -7.85587e-10 -1.24777e-09 -8.72654e-10 -1.36363e-09 -2.14973e-09 -1.50571e-09 -7.85591e-10 -1.24781e-09 -8.72647e-10 -7.73091 5.47488 -0.417314 -7.85587e-10 -1.24777e-09 -8.72654e-10 -2.90554 0.965183 -0.102902 -7.85592e-10 -1.24781e-09 -8.72653e-10 -10.2786 0.731801 -0.0259123 -7.8558e-10 -1.24777e-09 -8.72661e-10 -2.22167 -0.733487 0.20892 -2.03217e-16 0.0 -3.88251e-19 2.89301 -2.19711 15.7515 -0.0136348 9.09855 0.0688942 -14.01 -30.733 -26.5703 2.03217e-16 0.0 3.88251e-19 -13.8074 -24.8705 -16.1221 0.0147562 15.9411 -0.548299 0.0193786 -4.82974 4.42943
27.9331 85.5722 31.723 -180.08 -96.4473 194.228 9.09232 -1.76345 1.61102 2.14193 -14.6212 0.592243 -6.11435 -3.86613 -2.00657 -18.3 22.746 -1.04084 -0.0 0.0 0.0 -0.0 0.0 0.0 1.52595e-13 2.26594e-12 -2.05046e-13 52.6364 36.1678 12.2885 -28.1501 -39.5327 83.0884 -0.117128 -9.71311 -1.37845 3.00882e-12 4.69453e-10 7.51072e-10 4.50963e-12 8.07867e-10 1.29294e-09 3.01556e-12 4.69451e-10 7.51063e-10 7.73091 5.47488 0.417314 3.00995e-12 4.69454e-10 7.51082e-10 2.90554 0.965183 0.102902 3.01773e-12 4.6945e-10 7.51074e-10 10.2786 0.731801 0.0259123 3.00384e-12 4.69449e-10 7.51075e-10 2.22167 -0.733487 -0.20892 1.52748e-13 2.26596e-12 -2.05146e-13 -83.2092 15.9055 11.7752 18.4241 -11.1501 -34.9787 0.076208 7.85145 -1.11048 -1.31428e-09 -1.75548e-09 -1.45188e-09 -2.28213e-09 -3.02075e-09 -2.50231e-09 -1.31429e-09 -1.75552e-09 -1.45187e-09 -7.73091 5.47488 -0.417314 -1.31428e-09 -1.75549e-09 -1.45188e-09 -2.90554 0.965183 -0.102902 -1.31429e-09 -1.75552e-09 -1.45188e-09 -10.2786 0.731801 -0.0259123 -1.31428e-09 -1.75549e-09 -1.45189e-09 -2.22167 -0.733487 0.20892 -2.03217e-16 0.0 -3.88251e-19 3.72 -1.83753 16.3512 -0.0146917 8.34219 0.0141647 -14.9688 -31.6876 -27.7482 2.03217e-16 0.0 3.88251e-19 -13.3711 -25.0081 -16.5742 0.0138484 15.7276 -0.565665 -0.0162084 -4.4842 4.437
28.2568 85.7145 31.4395 -181.606 -97.5207 195.621 9.21013 -1.6923 1.83968 1.8416 -14.5594 0.627247 -5.71905 -4.05399 -1.76005 -18.0225 22.3571 -0.61301 -0.0 0.0 0.0 -0.0 0.0 0.0 1.66539e-13 2.36999e-12 -2.36861e-13 53.6047 36.8075 11.2443 -28.2843 -38.6468 81.5159 -0.12229 -9.90165 -1.40582 4.72893e-10 -7.68193e-11 6.22871e-11 8.21421e-10 -1.35009e-10 1.08984e-10 4.72899e-10 -7.68213e-11 6.22747e-11 7.73091 5.47488 0.417314 4.72893e-10 -7.68184e-11 6.22944e-11 2.90554 0.965183 0.102902 4.72901e-10 -7.68209e-11 6.2287e-11 10.2786 0.731801 0.0259123 4.72888e-10 -7.68222e-11 6.22899e-11 2.22167 -0.733487 -0.20892 1.6666e-13 2.37e-12 -2.37001e-13 -82.9326 16.4003 11.2163 18.2512 -10.9615 -34.5806 0.0756024 7.79684 -1.10273 -1.13819e-09 -2.45638e-09 -2.14361e-09 -1.98278e-09 -4.23541e-09 -3.70108e-09 -1.13819e-09 -2.45641e-09 -2.1436e-09 -7.73091 5.47488 -0.417314 -1.13819e-09 -2.45638e-09 -2.14361e-09 -2.90554 0.965183 -0.102902 -1.13819e-09 -2.45641e-09 -2.14361e-09 -10.2786 0.731801 -0.0259123 -1.13818e-09 -2.45638e-09 -2.14363e-09 -2.22167 -0.733487 0.20892 -2.03217e-16 0.0 -3.88251e-19 4.56706 -1.46373 17.1194 -0.0158307 7.61031 -0.0514567 -16.1787 -32.784 -29.1895 2.03217e-16 0.0 3.88251e-19 -13.0241 -25.2077 -17.1461 0.0129115 15.6271 -0.583883 -0.0548207 -4.12522 4.38407
28.6552 85.7985 31.1346 -182.358 -98.5262 196.387 9.31926 -1.5944 2.03914 1.52882 -14.613 0.654425 -5.35405 -4.16503 -1.51978 -17.6964 21.9339 -0.222186 -0.0 0.0 0.0 -0.0 0.0 0.0 1.58106e-13 2.27849e-12 -2.65312e-13 54.4421 37.7648 10.0654 -28.3594 -37.4173 79.6562 -0.132808 -10.2732 -1.45988 1.25581e-09 -1.09513e-09 -1.49038e-09 2.18512e-09 -1.89325e-09 -2.56423e-09 1.25582e-09 -1.09513e-09 -1.4904e-09 7.73091 5.47488 0.417314 1.25581e-09 -1.09513e-09 -1.49038e-09 2.90554 0.965183 0.102902 1.25582e-09 -1.09513e-09 -1.49039e-09 10.2786 0.731801 0.0259123 1.25581e-09 -1.09513e-09 -1.49038e-09 2.22167 -0.733487 -0.20892 1.5817e-13 2.2785e-12 -2.65523e-13 -82.6701 16.9551 10.6604 18.0308 -10.7227 -34.0819 0.0792482 7.99015 -1.1304 -5.52843e-10 -3.31418e-09 -2.96383e-09 -9.7675e-10 -5.72696e-09 -5.12648e-09 -5.52848e-10 -3.3142e-09 -2.96383e-09 -7.73091 5.47488 -0.417314 -5.52843e-10 -3.31419e-09 -2.96383e-09 -2.90554 0.965183 -0.102902 -5.52849e-10 -3.3142e-09 -2.96384e-09 -10.2786 0.731801 -0.0259123 -5.5284e-10 -3.31419e-09 -2.96385e-09 -2.22167 -0.733487 0.20892 -2.03217e-16 0.0 -3.88251e-19 5.44491 -1.07227 18.0357 -0.0175815 6.89119 -0.126053 -17.6229 -33.9504 -30.8735 2.03217e-16 0.0 3.88251e-19 -12.7227 -25.4379 -17.7977 0.011915 15.5913 -0.602806 -0.0948448 -3.75388 4.29358
